<svg width="300" height="80"  viewBox="0 0 500 214" fill="none" xmlns="http://www.w3.org/2000/svg">
<rect width="300" height="80" />
<path d="M56.9004 118.691C56.9004 121.248 56.2559 123.676 54.9668 125.975C53.6777 128.252 51.6689 130.1 48.9404 131.518C46.2334 132.936 42.7314 133.645 38.4346 133.645C36.2861 133.645 34.3955 133.548 32.7627 133.354C31.1514 133.161 29.6475 132.85 28.251 132.42C26.8545 131.969 25.4043 131.389 23.9004 130.68V119.336C26.457 120.625 29.0352 121.613 31.6348 122.301C34.2344 122.967 36.5869 123.3 38.6924 123.3C39.96 123.3 40.9912 123.149 41.7861 122.849C42.6025 122.548 43.2041 122.14 43.5908 121.624C43.9775 121.087 44.1709 120.475 44.1709 119.787C44.1709 118.971 43.8809 118.283 43.3008 117.725C42.7422 117.145 41.8398 116.543 40.5938 115.92C39.3477 115.297 37.7041 114.523 35.6631 113.6C33.9229 112.783 32.3438 111.945 30.9258 111.086C29.5293 110.227 28.3262 109.249 27.3164 108.153C26.3281 107.036 25.5654 105.736 25.0283 104.254C24.4912 102.771 24.2227 101.021 24.2227 99.001C24.2227 95.9717 24.9639 93.4365 26.4463 91.3955C27.9502 89.333 30.0342 87.7861 32.6982 86.7549C35.3838 85.7236 38.4775 85.208 41.9795 85.208C45.0518 85.208 47.8125 85.5518 50.2617 86.2393C52.7324 86.9268 54.9453 87.7109 56.9004 88.5918L53.001 98.4209C50.9814 97.4971 48.9941 96.7666 47.0391 96.2295C45.084 95.6709 43.2686 95.3916 41.5928 95.3916C40.4971 95.3916 39.5947 95.5312 38.8857 95.8105C38.1982 96.0684 37.6826 96.4229 37.3389 96.874C37.0166 97.3252 36.8555 97.8408 36.8555 98.4209C36.8555 99.1514 37.1348 99.8066 37.6934 100.387C38.2734 100.967 39.2295 101.601 40.5615 102.288C41.915 102.954 43.752 103.824 46.0723 104.898C48.3711 105.93 50.3262 107.047 51.9375 108.25C53.5488 109.432 54.7734 110.86 55.6113 112.536C56.4707 114.19 56.9004 116.242 56.9004 118.691ZM76.043 82.8555V89.9775C76.043 92.6846 75.9785 94.9619 75.8496 96.8096C75.7422 98.6357 75.6348 100.032 75.5273 100.999H76.1074C76.9023 99.7314 77.8047 98.7217 78.8145 97.9697C79.8242 97.2178 80.9414 96.6807 82.166 96.3584C83.3906 96.0146 84.7227 95.8428 86.1621 95.8428C88.5684 95.8428 90.7383 96.3047 92.6719 97.2285C94.627 98.1523 96.1846 99.6025 97.3447 101.579C98.5049 103.534 99.085 106.091 99.085 109.249V133H86.4199V113.084C86.4199 110.656 86.0654 108.83 85.3564 107.605C84.6475 106.359 83.5518 105.736 82.0693 105.736C80.5439 105.736 79.3408 106.177 78.46 107.058C77.5791 107.917 76.9561 109.185 76.5908 110.86C76.2256 112.515 76.043 114.545 76.043 116.951V133H63.4424V82.8555H76.043ZM120.322 96.4873V133H107.722V96.4873H120.322ZM114.07 81.792C115.875 81.792 117.443 82.168 118.775 82.9199C120.129 83.6719 120.806 85.165 120.806 87.3994C120.806 89.5693 120.129 91.041 118.775 91.8145C117.443 92.5664 115.875 92.9424 114.07 92.9424C112.223 92.9424 110.644 92.5664 109.333 91.8145C108.044 91.041 107.399 89.5693 107.399 87.3994C107.399 85.165 108.044 83.6719 109.333 82.9199C110.644 82.168 112.223 81.792 114.07 81.792ZM138.691 133L124.77 96.4873H137.918L144.105 118.079C144.17 118.272 144.277 118.767 144.428 119.562C144.6 120.356 144.686 121.098 144.686 121.785H144.911C144.911 121.055 144.986 120.356 145.137 119.69C145.287 119.024 145.405 118.509 145.491 118.144L151.969 96.4873H165.085L151.163 133H138.691ZM187.289 95.8428C191.908 95.8428 195.518 96.9922 198.117 99.291C200.717 101.568 202.017 104.823 202.017 109.056V133H193.283L190.866 128.166H190.608C189.577 129.455 188.514 130.508 187.418 131.324C186.344 132.119 185.108 132.699 183.712 133.064C182.315 133.451 180.607 133.645 178.588 133.645C176.482 133.645 174.592 133.215 172.916 132.355C171.24 131.496 169.919 130.196 168.952 128.456C167.985 126.716 167.502 124.514 167.502 121.85C167.502 117.939 168.855 115.039 171.562 113.148C174.27 111.258 178.19 110.194 183.325 109.958L189.416 109.765V109.249C189.416 107.616 189.008 106.456 188.191 105.769C187.396 105.081 186.322 104.737 184.969 104.737C183.529 104.737 181.918 104.995 180.135 105.511C178.373 106.005 176.601 106.649 174.817 107.444L171.176 99.1299C173.281 98.0557 175.666 97.2393 178.33 96.6807C180.994 96.1221 183.98 95.8428 187.289 95.8428ZM189.48 116.693L186.58 116.822C184.26 116.908 182.627 117.316 181.682 118.047C180.758 118.756 180.296 119.776 180.296 121.108C180.296 122.354 180.629 123.278 181.295 123.88C181.961 124.46 182.842 124.75 183.938 124.75C185.463 124.75 186.763 124.267 187.837 123.3C188.933 122.333 189.48 121.076 189.48 119.529V116.693ZM255.158 95.8428C259.326 95.8428 262.506 96.9062 264.697 99.0332C266.91 101.16 268.017 104.565 268.017 109.249V133H255.416V113.148C255.416 110.377 255.04 108.454 254.288 107.38C253.558 106.284 252.462 105.736 251.001 105.736C248.96 105.736 247.542 106.628 246.747 108.411C245.974 110.194 245.587 112.719 245.587 115.984V133H232.954V113.148C232.954 111.387 232.793 109.969 232.471 108.895C232.17 107.799 231.708 107.004 231.085 106.51C230.462 105.994 229.678 105.736 228.732 105.736C227.293 105.736 226.165 106.177 225.349 107.058C224.554 107.917 223.995 109.185 223.673 110.86C223.351 112.536 223.189 114.588 223.189 117.016V133H210.589V96.4873H220.096L221.933 100.999H222.287C222.932 100.011 223.759 99.1299 224.769 98.3564C225.8 97.583 227.014 96.9707 228.41 96.5195C229.828 96.0684 231.439 95.8428 233.244 95.8428C235.93 95.8428 238.143 96.2939 239.883 97.1963C241.623 98.0986 243.041 99.3447 244.137 100.935H244.523C245.684 99.3018 247.177 98.0449 249.003 97.1641C250.829 96.2832 252.881 95.8428 255.158 95.8428Z" fill="black"/>
<path d="M325.283 118.691C325.283 121.248 324.639 123.676 323.35 125.975C322.061 128.252 320.052 130.1 317.323 131.518C314.616 132.936 311.114 133.645 306.817 133.645C304.669 133.645 302.778 133.548 301.146 133.354C299.534 133.161 298.03 132.85 296.634 132.42C295.237 131.969 293.787 131.389 292.283 130.68V119.336C294.84 120.625 297.418 121.613 300.018 122.301C302.617 122.967 304.97 123.3 307.075 123.3C308.343 123.3 309.374 123.149 310.169 122.849C310.985 122.548 311.587 122.14 311.974 121.624C312.36 121.087 312.554 120.475 312.554 119.787C312.554 118.971 312.264 118.283 311.684 117.725C311.125 117.145 310.223 116.543 308.977 115.92C307.73 115.297 306.087 114.523 304.046 113.6C302.306 112.783 300.727 111.945 299.309 111.086C297.912 110.227 296.709 109.249 295.699 108.153C294.711 107.036 293.948 105.736 293.411 104.254C292.874 102.771 292.605 101.021 292.605 99.001C292.605 95.9717 293.347 93.4365 294.829 91.3955C296.333 89.333 298.417 87.7861 301.081 86.7549C303.767 85.7236 306.86 85.208 310.362 85.208C313.435 85.208 316.195 85.5518 318.645 86.2393C321.115 86.9268 323.328 87.7109 325.283 88.5918L321.384 98.4209C319.364 97.4971 317.377 96.7666 315.422 96.2295C313.467 95.6709 311.651 95.3916 309.976 95.3916C308.88 95.3916 307.978 95.5312 307.269 95.8105C306.581 96.0684 306.065 96.4229 305.722 96.874C305.399 97.3252 305.238 97.8408 305.238 98.4209C305.238 99.1514 305.518 99.8066 306.076 100.387C306.656 100.967 307.612 101.601 308.944 102.288C310.298 102.954 312.135 103.824 314.455 104.898C316.754 105.93 318.709 107.047 320.32 108.25C321.932 109.432 323.156 110.86 323.994 112.536C324.854 114.19 325.283 116.242 325.283 118.691ZM344.49 96.4873V133H331.89V96.4873H344.49ZM338.238 81.792C340.043 81.792 341.611 82.168 342.943 82.9199C344.297 83.6719 344.974 85.165 344.974 87.3994C344.974 89.5693 344.297 91.041 342.943 91.8145C341.611 92.5664 340.043 92.9424 338.238 92.9424C336.391 92.9424 334.812 92.5664 333.501 91.8145C332.212 91.041 331.567 89.5693 331.567 87.3994C331.567 85.165 332.212 83.6719 333.501 82.9199C334.812 82.168 336.391 81.792 338.238 81.792ZM376.137 95.8428C379.896 95.8428 382.969 96.9062 385.354 99.0332C387.738 101.16 388.931 104.565 388.931 109.249V133H376.33V113.084C376.33 110.656 375.976 108.83 375.267 107.605C374.579 106.359 373.462 105.736 371.915 105.736C369.53 105.736 367.93 106.714 367.113 108.669C366.297 110.603 365.889 113.385 365.889 117.016V133H353.288V96.4873H362.795L364.503 101.321H364.986C365.76 100.161 366.684 99.1729 367.758 98.3564C368.832 97.54 370.067 96.917 371.464 96.4873C372.86 96.0576 374.418 95.8428 376.137 95.8428ZM409.975 148.855C404.797 148.855 400.801 147.985 397.986 146.245C395.193 144.526 393.797 142.045 393.797 138.801C393.797 136.631 394.474 134.837 395.827 133.419C397.181 132.001 399.211 130.98 401.918 130.357C400.801 129.885 399.823 129.122 398.985 128.069C398.169 127.017 397.761 125.975 397.761 124.943C397.761 123.805 398.072 122.806 398.695 121.946C399.318 121.065 400.618 120.023 402.595 118.82C400.704 117.982 399.211 116.672 398.115 114.889C397.041 113.105 396.504 110.936 396.504 108.379C396.504 105.736 397.105 103.48 398.309 101.611C399.533 99.7422 401.306 98.3135 403.626 97.3252C405.968 96.3369 408.814 95.8428 412.166 95.8428C412.617 95.8428 413.305 95.8857 414.229 95.9717C415.152 96.0361 416.087 96.1221 417.032 96.2295C417.978 96.3154 418.708 96.4014 419.224 96.4873H431.953V102.578L426.958 104.415C427.302 105.038 427.56 105.715 427.731 106.445C427.903 107.176 427.989 107.949 427.989 108.766C427.989 112.697 426.604 115.748 423.832 117.918C421.082 120.088 416.968 121.173 411.489 121.173C410.136 121.173 409.062 121.087 408.267 120.915C408.116 121.194 407.998 121.474 407.912 121.753C407.848 122.011 407.815 122.258 407.815 122.494C407.815 122.988 408.105 123.386 408.686 123.687C409.287 123.966 410.007 124.159 410.845 124.267C411.704 124.374 412.521 124.428 413.294 124.428H419.353C423.456 124.428 426.528 125.287 428.569 127.006C430.61 128.725 431.631 131.313 431.631 134.772C431.631 139.22 429.729 142.679 425.927 145.149C422.146 147.62 416.828 148.855 409.975 148.855ZM410.587 140.992C412.112 140.992 413.648 140.853 415.195 140.573C416.742 140.315 418.042 139.886 419.095 139.284C420.147 138.683 420.674 137.888 420.674 136.899C420.674 136.147 420.362 135.578 419.739 135.191C419.116 134.826 418.311 134.579 417.322 134.45C416.334 134.321 415.292 134.257 414.196 134.257H409.298C408.396 134.257 407.568 134.396 406.816 134.676C406.086 134.977 405.506 135.374 405.076 135.868C404.646 136.362 404.432 136.921 404.432 137.544C404.432 138.575 404.99 139.402 406.107 140.025C407.225 140.67 408.718 140.992 410.587 140.992ZM412.295 114.051C413.498 114.051 414.422 113.589 415.066 112.665C415.732 111.741 416.065 110.355 416.065 108.508C416.065 106.617 415.754 105.199 415.131 104.254C414.508 103.309 413.562 102.836 412.295 102.836C410.984 102.836 410.007 103.309 409.362 104.254C408.718 105.178 408.396 106.574 408.396 108.443C408.396 110.312 408.718 111.72 409.362 112.665C410.007 113.589 410.984 114.051 412.295 114.051ZM450.129 82.8555V89.9775C450.129 92.6846 450.064 94.9619 449.936 96.8096C449.828 98.6357 449.721 100.032 449.613 100.999H450.193C450.988 99.7314 451.891 98.7217 452.9 97.9697C453.91 97.2178 455.027 96.6807 456.252 96.3584C457.477 96.0146 458.809 95.8428 460.248 95.8428C462.654 95.8428 464.824 96.3047 466.758 97.2285C468.713 98.1523 470.271 99.6025 471.431 101.579C472.591 103.534 473.171 106.091 473.171 109.249V133H460.506V113.084C460.506 110.656 460.151 108.83 459.442 107.605C458.733 106.359 457.638 105.736 456.155 105.736C454.63 105.736 453.427 106.177 452.546 107.058C451.665 107.917 451.042 109.185 450.677 110.86C450.312 112.515 450.129 114.545 450.129 116.951V133H437.528V82.8555H450.129Z" fill="#E9B949"/>

<defs>
<filter id="filter0_d" x="23.0713" y="7.5" width="180.652" height="30.793" filterUnits="userSpaceOnUse" color-interpolation-filters="sRGB">
<feFlood flood-opacity="0" result="BackgroundImageFix"/>
<feColorMatrix in="SourceAlpha" type="matrix" values="0 0 0 0 0 0 0 0 0 0 0 0 0 0 0 0 0 0 127 0"/>
<feOffset dy="4"/>
<feGaussianBlur stdDeviation="2"/>
<feColorMatrix type="matrix" values="0 0 0 0 0 0 0 0 0 0 0 0 0 0 0 0 0 0 0.25 0"/>
<feBlend mode="normal" in2="BackgroundImageFix" result="effect1_dropShadow"/>
<feBlend mode="normal" in="SourceGraphic" in2="effect1_dropShadow" result="shape"/>
</filter>
</defs>
</svg>
