<svg width="300" height="80" viewBox="0 0 500 214" fill="none" xmlns="http://www.w3.org/2000/svg">
<path d="M38.9004 118.691C38.9004 121.248 38.2559 123.676 36.9668 125.975C35.6777 128.252 33.6689 130.1 30.9404 131.518C28.2334 132.936 24.7314 133.645 20.4346 133.645C18.2861 133.645 16.3955 133.548 14.7627 133.354C13.1514 133.161 11.6475 132.85 10.251 132.42C8.85449 131.969 7.4043 131.389 5.90039 130.68V119.336C8.45703 120.625 11.0352 121.613 13.6348 122.301C16.2344 122.967 18.5869 123.3 20.6924 123.3C21.96 123.3 22.9912 123.149 23.7861 122.849C24.6025 122.548 25.2041 122.14 25.5908 121.624C25.9775 121.087 26.1709 120.475 26.1709 119.787C26.1709 118.971 25.8809 118.283 25.3008 117.725C24.7422 117.145 23.8398 116.543 22.5938 115.92C21.3477 115.297 19.7041 114.523 17.6631 113.6C15.9229 112.783 14.3438 111.945 12.9258 111.086C11.5293 110.227 10.3262 109.249 9.31641 108.153C8.32812 107.036 7.56543 105.736 7.02832 104.254C6.49121 102.771 6.22266 101.021 6.22266 99.001C6.22266 95.9717 6.96387 93.4365 8.44629 91.3955C9.9502 89.333 12.0342 87.7861 14.6982 86.7549C17.3838 85.7236 20.4775 85.208 23.9795 85.208C27.0518 85.208 29.8125 85.5518 32.2617 86.2393C34.7324 86.9268 36.9453 87.7109 38.9004 88.5918L35.001 98.4209C32.9814 97.4971 30.9941 96.7666 29.0391 96.2295C27.084 95.6709 25.2686 95.3916 23.5928 95.3916C22.4971 95.3916 21.5947 95.5312 20.8857 95.8105C20.1982 96.0684 19.6826 96.4229 19.3389 96.874C19.0166 97.3252 18.8555 97.8408 18.8555 98.4209C18.8555 99.1514 19.1348 99.8066 19.6934 100.387C20.2734 100.967 21.2295 101.601 22.5615 102.288C23.915 102.954 25.752 103.824 28.0723 104.898C30.3711 105.93 32.3262 107.047 33.9375 108.25C35.5488 109.432 36.7734 110.86 37.6113 112.536C38.4707 114.19 38.9004 116.242 38.9004 118.691ZM61.343 82.8555V89.9775C61.343 92.6846 61.2785 94.9619 61.1496 96.8096C61.0422 98.6357 60.9348 100.032 60.8273 100.999H61.4074C62.2023 99.7314 63.1047 98.7217 64.1145 97.9697C65.1242 97.2178 66.2414 96.6807 67.466 96.3584C68.6906 96.0146 70.0227 95.8428 71.4621 95.8428C73.8684 95.8428 76.0383 96.3047 77.9719 97.2285C79.927 98.1523 81.4846 99.6025 82.6447 101.579C83.8049 103.534 84.385 106.091 84.385 109.249V133H71.7199V113.084C71.7199 110.656 71.3654 108.83 70.6564 107.605C69.9475 106.359 68.8518 105.736 67.3693 105.736C65.8439 105.736 64.6408 106.177 63.76 107.058C62.8791 107.917 62.2561 109.185 61.8908 110.86C61.5256 112.515 61.343 114.545 61.343 116.951V133H48.7424V82.8555H61.343ZM108.922 96.4873V133H96.3217V96.4873H108.922ZM102.67 81.792C104.475 81.792 106.043 82.168 107.375 82.9199C108.729 83.6719 109.406 85.165 109.406 87.3994C109.406 89.5693 108.729 91.041 107.375 91.8145C106.043 92.5664 104.475 92.9424 102.67 92.9424C100.823 92.9424 99.2436 92.5664 97.933 91.8145C96.6439 91.041 95.9994 89.5693 95.9994 87.3994C95.9994 85.165 96.6439 83.6719 97.933 82.9199C99.2436 82.168 100.823 81.792 102.67 81.792ZM130.591 133L116.67 96.4873H129.818L136.005 118.079C136.07 118.272 136.177 118.767 136.328 119.562C136.5 120.356 136.586 121.098 136.586 121.785H136.811C136.811 121.055 136.886 120.356 137.037 119.69C137.187 119.024 137.305 118.509 137.391 118.144L143.869 96.4873H156.985L143.063 133H130.591ZM182.489 95.8428C187.108 95.8428 190.718 96.9922 193.317 99.291C195.917 101.568 197.217 104.823 197.217 109.056V133H188.483L186.066 128.166H185.808C184.777 129.455 183.714 130.508 182.618 131.324C181.544 132.119 180.308 132.699 178.912 133.064C177.515 133.451 175.807 133.645 173.788 133.645C171.682 133.645 169.792 133.215 168.116 132.355C166.44 131.496 165.119 130.196 164.152 128.456C163.185 126.716 162.702 124.514 162.702 121.85C162.702 117.939 164.055 115.039 166.762 113.148C169.47 111.258 173.39 110.194 178.525 109.958L184.616 109.765V109.249C184.616 107.616 184.208 106.456 183.391 105.769C182.596 105.081 181.522 104.737 180.169 104.737C178.729 104.737 177.118 104.995 175.335 105.511C173.573 106.005 171.801 106.649 170.017 107.444L166.376 99.1299C168.481 98.0557 170.866 97.2393 173.53 96.6807C176.194 96.1221 179.18 95.8428 182.489 95.8428ZM184.68 116.693L181.78 116.822C179.46 116.908 177.827 117.316 176.882 118.047C175.958 118.756 175.496 119.776 175.496 121.108C175.496 122.354 175.829 123.278 176.495 123.88C177.161 124.46 178.042 124.75 179.137 124.75C180.663 124.75 181.963 124.267 183.037 123.3C184.133 122.333 184.68 121.076 184.68 119.529V116.693ZM253.658 95.8428C257.826 95.8428 261.006 96.9062 263.197 99.0332C265.41 101.16 266.517 104.565 266.517 109.249V133H253.916V113.148C253.916 110.377 253.54 108.454 252.788 107.38C252.058 106.284 250.962 105.736 249.501 105.736C247.46 105.736 246.042 106.628 245.247 108.411C244.474 110.194 244.087 112.719 244.087 115.984V133H231.454V113.148C231.454 111.387 231.293 109.969 230.971 108.895C230.67 107.799 230.208 107.004 229.585 106.51C228.962 105.994 228.178 105.736 227.232 105.736C225.793 105.736 224.665 106.177 223.849 107.058C223.054 107.917 222.495 109.185 222.173 110.86C221.851 112.536 221.689 114.588 221.689 117.016V133H209.089V96.4873H218.596L220.433 100.999H220.787C221.432 100.011 222.259 99.1299 223.269 98.3564C224.3 97.583 225.514 96.9707 226.91 96.5195C228.328 96.0684 229.939 95.8428 231.744 95.8428C234.43 95.8428 236.643 96.2939 238.383 97.1963C240.123 98.0986 241.541 99.3447 242.637 100.935H243.023C244.184 99.3018 245.677 98.0449 247.503 97.1641C249.329 96.2832 251.381 95.8428 253.658 95.8428Z" fill="#242824"/>
<path d="M330.383 118.691C330.383 121.248 329.739 123.676 328.45 125.975C327.161 128.252 325.152 130.1 322.423 131.518C319.716 132.936 316.214 133.645 311.917 133.645C309.769 133.645 307.878 133.548 306.246 133.354C304.634 133.161 303.13 132.85 301.734 132.42C300.337 131.969 298.887 131.389 297.383 130.68V119.336C299.94 120.625 302.518 121.613 305.118 122.301C307.717 122.967 310.07 123.3 312.175 123.3C313.443 123.3 314.474 123.149 315.269 122.849C316.085 122.548 316.687 122.14 317.074 121.624C317.46 121.087 317.654 120.475 317.654 119.787C317.654 118.971 317.364 118.283 316.784 117.725C316.225 117.145 315.323 116.543 314.077 115.92C312.83 115.297 311.187 114.523 309.146 113.6C307.406 112.783 305.827 111.945 304.409 111.086C303.012 110.227 301.809 109.249 300.799 108.153C299.811 107.036 299.048 105.736 298.511 104.254C297.974 102.771 297.705 101.021 297.705 99.001C297.705 95.9717 298.447 93.4365 299.929 91.3955C301.433 89.333 303.517 87.7861 306.181 86.7549C308.867 85.7236 311.96 85.208 315.462 85.208C318.535 85.208 321.295 85.5518 323.745 86.2393C326.215 86.9268 328.428 87.7109 330.383 88.5918L326.484 98.4209C324.464 97.4971 322.477 96.7666 320.522 96.2295C318.567 95.6709 316.751 95.3916 315.076 95.3916C313.98 95.3916 313.078 95.5312 312.369 95.8105C311.681 96.0684 311.165 96.4229 310.822 96.874C310.499 97.3252 310.338 97.8408 310.338 98.4209C310.338 99.1514 310.618 99.8066 311.176 100.387C311.756 100.967 312.712 101.601 314.044 102.288C315.398 102.954 317.235 103.824 319.555 104.898C321.854 105.93 323.809 107.047 325.42 108.25C327.032 109.432 328.256 110.86 329.094 112.536C329.954 114.19 330.383 116.242 330.383 118.691ZM352.89 96.4873V133H340.29V96.4873H352.89ZM346.638 81.792C348.443 81.792 350.011 82.168 351.343 82.9199C352.697 83.6719 353.374 85.165 353.374 87.3994C353.374 89.5693 352.697 91.041 351.343 91.8145C350.011 92.5664 348.443 92.9424 346.638 92.9424C344.791 92.9424 343.212 92.5664 341.901 91.8145C340.612 91.041 339.967 89.5693 339.967 87.3994C339.967 85.165 340.612 83.6719 341.901 82.9199C343.212 82.168 344.791 81.792 346.638 81.792ZM387.837 95.8428C391.596 95.8428 394.669 96.9062 397.054 99.0332C399.438 101.16 400.631 104.565 400.631 109.249V133H388.03V113.084C388.03 110.656 387.676 108.83 386.967 107.605C386.279 106.359 385.162 105.736 383.615 105.736C381.23 105.736 379.63 106.714 378.813 108.669C377.997 110.603 377.589 113.385 377.589 117.016V133H364.988V96.4873H374.495L376.203 101.321H376.686C377.46 100.161 378.384 99.1729 379.458 98.3564C380.532 97.54 381.767 96.917 383.164 96.4873C384.56 96.0576 386.118 95.8428 387.837 95.8428ZM424.975 148.855C419.797 148.855 415.801 147.985 412.986 146.245C410.193 144.526 408.797 142.045 408.797 138.801C408.797 136.631 409.474 134.837 410.827 133.419C412.181 132.001 414.211 130.98 416.918 130.357C415.801 129.885 414.823 129.122 413.985 128.069C413.169 127.017 412.761 125.975 412.761 124.943C412.761 123.805 413.072 122.806 413.695 121.946C414.318 121.065 415.618 120.023 417.595 118.82C415.704 117.982 414.211 116.672 413.115 114.889C412.041 113.105 411.504 110.936 411.504 108.379C411.504 105.736 412.105 103.48 413.309 101.611C414.533 99.7422 416.306 98.3135 418.626 97.3252C420.968 96.3369 423.814 95.8428 427.166 95.8428C427.617 95.8428 428.305 95.8857 429.229 95.9717C430.152 96.0361 431.087 96.1221 432.032 96.2295C432.978 96.3154 433.708 96.4014 434.224 96.4873H446.953V102.578L441.958 104.415C442.302 105.038 442.56 105.715 442.731 106.445C442.903 107.176 442.989 107.949 442.989 108.766C442.989 112.697 441.604 115.748 438.832 117.918C436.082 120.088 431.968 121.173 426.489 121.173C425.136 121.173 424.062 121.087 423.267 120.915C423.116 121.194 422.998 121.474 422.912 121.753C422.848 122.011 422.815 122.258 422.815 122.494C422.815 122.988 423.105 123.386 423.686 123.687C424.287 123.966 425.007 124.159 425.845 124.267C426.704 124.374 427.521 124.428 428.294 124.428H434.353C438.456 124.428 441.528 125.287 443.569 127.006C445.61 128.725 446.631 131.313 446.631 134.772C446.631 139.22 444.729 142.679 440.927 145.149C437.146 147.62 431.828 148.855 424.975 148.855ZM425.587 140.992C427.112 140.992 428.648 140.853 430.195 140.573C431.742 140.315 433.042 139.886 434.095 139.284C435.147 138.683 435.674 137.888 435.674 136.899C435.674 136.147 435.362 135.578 434.739 135.191C434.116 134.826 433.311 134.579 432.322 134.45C431.334 134.321 430.292 134.257 429.196 134.257H424.298C423.396 134.257 422.568 134.396 421.816 134.676C421.086 134.977 420.506 135.374 420.076 135.868C419.646 136.362 419.432 136.921 419.432 137.544C419.432 138.575 419.99 139.402 421.107 140.025C422.225 140.67 423.718 140.992 425.587 140.992ZM427.295 114.051C428.498 114.051 429.422 113.589 430.066 112.665C430.732 111.741 431.065 110.355 431.065 108.508C431.065 106.617 430.754 105.199 430.131 104.254C429.508 103.309 428.562 102.836 427.295 102.836C425.984 102.836 425.007 103.309 424.362 104.254C423.718 105.178 423.396 106.574 423.396 108.443C423.396 110.312 423.718 111.72 424.362 112.665C425.007 113.589 425.984 114.051 427.295 114.051ZM468.429 82.8555V89.9775C468.429 92.6846 468.364 94.9619 468.236 96.8096C468.128 98.6357 468.021 100.032 467.913 100.999H468.493C469.288 99.7314 470.191 98.7217 471.2 97.9697C472.21 97.2178 473.327 96.6807 474.552 96.3584C475.777 96.0146 477.109 95.8428 478.548 95.8428C480.954 95.8428 483.124 96.3047 485.058 97.2285C487.013 98.1523 488.57 99.6025 489.731 101.579C490.891 103.534 491.471 106.091 491.471 109.249V133H478.806V113.084C478.806 110.656 478.451 108.83 477.742 107.605C477.033 106.359 475.938 105.736 474.455 105.736C472.93 105.736 471.727 106.177 470.846 107.058C469.965 107.917 469.342 109.185 468.977 110.86C468.612 112.515 468.429 114.545 468.429 116.951V133H455.828V82.8555H468.429Z" fill="#E9B949"/>
</svg>
